<svg width="320" height="200" viewBox="0 0 320 200" fill="none" xmlns="http://www.w3.org/2000/svg">
  <defs>
    <linearGradient id="photoGrad" x1="0%" y1="0%" x2="100%" y2="100%">
      <stop offset="0%" style="stop-color:#f59e0b;stop-opacity:1" />
      <stop offset="50%" style="stop-color:#d97706;stop-opacity:1" />
      <stop offset="100%" style="stop-color:#b45309;stop-opacity:1" />
    </linearGradient>
  </defs>

  <rect x="5" y="8" width="310" height="190" rx="15" fill="#000000" opacity="0.1"/>
  <rect x="0" y="0" width="310" height="190" rx="15" fill="url(#photoGrad)" stroke="#b45309" stroke-width="2"/>

  <rect x="0" y="0" width="310" height="8" rx="15" fill="#7c3aed"/>
  <rect x="0" y="182" width="310" height="8" rx="15" fill="#a855f7" opacity="0.5"/>

  <rect x="25" y="30" width="45" height="35" rx="4" fill="#fbbf24" stroke="#f97316" stroke-width="1.5"/>
  <line x1="30" y1="35" x2="30" y2="60" stroke="#000000" stroke-width="1" opacity="0.3"/>
  <line x1="38" y1="35" x2="38" y2="60" stroke="#000000" stroke-width="1" opacity="0.3"/>
  <line x1="46" y1="35" x2="46" y2="60" stroke="#000000" stroke-width="1" opacity="0.3"/>
  <line x1="54" y1="35" x2="54" y2="60" stroke="#000000" stroke-width="1" opacity="0.3"/>
  <line x1="62" y1="35" x2="62" y2="60" stroke="#000000" stroke-width="1" opacity="0.3"/>

  <g transform="translate(200, 45)">
    <rect x="0" y="15" width="60" height="45" rx="5" fill="#ffffff" opacity="0.9"/>
    <rect x="0" y="10" width="20" height="8" rx="3" fill="#ffffff" opacity="0.9"/>
    <circle cx="35" cy="37" r="15" stroke="#f59e0b" stroke-width="3" fill="none"/>
    <circle cx="35" cy="37" r="10" fill="#f59e0b"/>
    <circle cx="12" cy="23" r="3" fill="#f59e0b"/>
    <rect x="50" y="20" width="6" height="6" rx="1" fill="#f59e0b"/>
  </g>

  <text x="25" y="110" font-family="Arial, sans-serif" font-size="20" font-weight="bold" fill="#ffffff">ALEX PHOTOGRAPHY</text>
  <text x="25" y="132" font-family="Arial, sans-serif" font-size="14" fill="#ffffff" opacity="0.9">Event and Portrait Specialist</text>
  <text x="25" y="150" font-family="Arial, sans-serif" font-size="12" fill="#ffffff" opacity="0.8">Professional Photography</text>

  <line x1="25" y1="165" x2="180" y2="165" stroke="#ffffff" stroke-width="1.5" opacity="0.6"/>
  <line x1="25" y1="173" x2="160" y2="173" stroke="#ffffff" stroke-width="1.5" opacity="0.6"/>

  <g transform="translate(270, 155)">
    <path d="M 0 0 Q 12 0 12 12" stroke="#ffffff" stroke-width="2" fill="none" opacity="0.8"/>
    <path d="M 0 6 Q 7 6 7 13" stroke="#ffffff" stroke-width="2" fill="none" opacity="0.8"/>
    <circle cx="0" cy="15" r="2" fill="#ffffff" opacity="0.8"/>
  </g>

  <rect x="195" y="155" width="60" height="20" rx="10" fill="#ffffff" opacity="0.2"/>
  <text x="225" y="169" font-family="Arial, sans-serif" font-size="10" font-weight="bold" fill="#ffffff" text-anchor="middle">CREATIVE</text>
</svg>
